# xmcd
#
# Track frame offsets: 
#        182
#        12300
#        23082
#        32767
#        45635
#        62927
#        74225
#        86125
#        99710
#        113210
#        123737
#        133672
#        146990
#        157707
#        169105
#
# Disc length: 2411 seconds
#
# Revision: 3
# Processed by: cddbd v1.5.2PL0 Copyright (c) Steve Scherf et al.
# Submitted via: ExactAudioCopy v0.95b3
#
DISCID=dc09690f
DTITLE=Jo-el Sonnier - The Complete Mercury Sessions
DYEAR=1992
DGENRE=Country
TTITLE0=Cajun Born
TTITLE1=Sugar Bee
TTITLE2=Say You Love Me
TTITLE3=It Don't Hurt Me Half As Bad
TTITLE4=Come On Joe
TTITLE5=Blue Is Not A Word
TTITLE6=Cajun Woman
TTITLE7=A Brighter Shade Of Blue
TTITLE8=Always Late (With Your Kisses)
TTITLE9=Am I Just Your Friend
TTITLE10=Knock, Knock, Knock
TTITLE11=He's Still All Over You
TTITLE12=Cheatin' Turns Her On
TTITLE13=I've Been Around Enough To Know
TTITLE14=Showboat Gambler
EXTD=
EXTT0=
EXTT1=
EXTT2=
EXTT3=
EXTT4=
EXTT5=
EXTT6=
EXTT7=
EXTT8=
EXTT9=
EXTT10=
EXTT11=
EXTT12=
EXTT13=
EXTT14=
PLAYORDER=
